<svg width="104" height="30" viewBox="0 0 104 30" fill="none" xmlns="http://www.w3.org/2000/svg">
<path fill-rule="evenodd" clip-rule="evenodd" d="M12.6754 3.47597H10.6652C6.97986 3.47597 5.05342 5.31866 5.05342 8.05476C5.05342 11.1538 6.39355 12.5917 9.14362 14.4483L11.4051 15.956L4.85798 25.6719H0L5.87704 16.989C2.49879 14.5879 0.600268 12.2566 0.600268 8.30604C0.600268 3.35033 4.06228 0 10.6373 0H17.1705V25.6719H12.6754V3.47597Z" fill="#E63F0C"/>
<path fill-rule="evenodd" clip-rule="evenodd" d="M49.222 22.2099H42.982C44.2104 19.404 44.5455 14.3366 44.5455 11.1259V10.5675H49.2359V22.2099H49.222ZM53.6472 7.10547H40.7484V8.69688C40.7484 13.2338 40.4553 19.1108 38.8918 22.2099H37.5098V29.9296H41.6V25.6859H51.5253V29.9296H55.6155V22.2099H53.6472V7.10547Z" fill="#000003"/>
<path fill-rule="evenodd" clip-rule="evenodd" d="M31.2281 14.4483H25.3232V7.10547H20.8979V25.6859H25.3232V17.9243H31.2281V25.6859H35.6534V7.10547H31.2281V14.4483Z" fill="#000003"/>
<path fill-rule="evenodd" clip-rule="evenodd" d="M99.7144 10.2046C101.431 10.2046 103.093 10.7909 103.986 11.3493V7.62206C103.051 7.10555 101.418 6.72864 99.2259 6.72864C93.5722 6.72864 90.6406 10.749 90.6406 16.4027C90.6406 22.6148 93.5024 26.0489 99.4213 26.0489C101.473 26.0489 102.911 25.6859 104 24.9042V21.3166C102.883 22.0983 101.543 22.5729 99.6865 22.5729C96.5316 22.5729 95.2194 20.13 95.2194 16.291C95.2194 12.2706 96.8248 10.2046 99.7144 10.2046Z" fill="#000003"/>
<path fill-rule="evenodd" clip-rule="evenodd" d="M90.0542 7.10547H85.5871L79.3471 15.6767V7.10547H74.9219V25.6859H79.3471V16.5562L85.8942 25.6859H90.9058L83.8003 15.6767L90.0542 7.10547Z" fill="#000003"/>
<path fill-rule="evenodd" clip-rule="evenodd" d="M67.4396 14.7136H61.2694C61.3811 11.7541 62.456 10.2046 64.5779 10.2046C66.7695 10.2046 67.4396 12.0194 67.4396 14.3367V14.7136ZM64.6616 6.72864C59.2732 6.72864 56.7046 10.8328 56.7046 16.4446C56.7046 22.908 59.9014 26.0489 65.5551 26.0489C68.3749 26.0489 70.4689 25.309 71.7671 24.4296V20.8419C70.3851 21.7633 68.0818 22.5729 65.932 22.5729C62.6933 22.5729 61.4649 21.0653 61.2834 17.9523H71.9486V15.621C71.9486 9.17159 69.0869 6.72864 64.6616 6.72864Z" fill="#000003"/>
</svg>
